<svg xmlns="http://www.w3.org/2000/svg" version="1.1" xmlns:xlink="http://www.w3.org/1999/xlink" xmlns:svgjs="http://svgjs.dev/svgjs" viewBox="0 0 1422 800"><defs><linearGradient x1="50%" y1="0%" x2="50%" y2="100%" id="oooscillate-grad"><stop stop-color="hsl(206, 75%, 49%)" stop-opacity="1" offset="0%"></stop><stop stop-color="hsl(331, 90%, 56%)" stop-opacity="1" offset="100%"></stop></linearGradient></defs><g stroke-width="7" stroke="url(#oooscillate-grad)" fill="none" stroke-linecap="round"><path d="M 0 667 Q 355.5 75 711 400 Q 1066.5 725 1422 667" stroke-dasharray="2 1" opacity="1.00"></path><path d="M 0 644 Q 355.5 75 711 400 Q 1066.5 725 1422 644" stroke-dasharray="3 1" opacity="0.97"></path><path d="M 0 621 Q 355.5 75 711 400 Q 1066.5 725 1422 621" stroke-dasharray="1 1" opacity="0.93"></path><path d="M 0 598 Q 355.5 75 711 400 Q 1066.5 725 1422 598" stroke-dasharray="1 3" opacity="0.90"></path><path d="M 0 575 Q 355.5 75 711 400 Q 1066.5 725 1422 575" stroke-dasharray="1 0" opacity="0.86"></path><path d="M 0 552 Q 355.5 75 711 400 Q 1066.5 725 1422 552" stroke-dasharray="0 2" opacity="0.83"></path><path d="M 0 529 Q 355.5 75 711 400 Q 1066.5 725 1422 529" stroke-dasharray="2 3" opacity="0.80"></path><path d="M 0 506 Q 355.5 75 711 400 Q 1066.5 725 1422 506" stroke-dasharray="3 2" opacity="0.76"></path><path d="M 0 483 Q 355.5 75 711 400 Q 1066.5 725 1422 483" stroke-dasharray="1 0" opacity="0.73"></path><path d="M 0 460 Q 355.5 75 711 400 Q 1066.5 725 1422 460" stroke-dasharray="0 2" opacity="0.69"></path><path d="M 0 437 Q 355.5 75 711 400 Q 1066.5 725 1422 437" stroke-dasharray="2 0" opacity="0.66"></path><path d="M 0 414 Q 355.5 75 711 400 Q 1066.5 725 1422 414" stroke-dasharray="0 3" opacity="0.63"></path><path d="M 0 391 Q 355.5 75 711 400 Q 1066.5 725 1422 391" stroke-dasharray="2 2" opacity="0.59"></path><path d="M 0 368 Q 355.5 75 711 400 Q 1066.5 725 1422 368" stroke-dasharray="2 2" opacity="0.56"></path><path d="M 0 345 Q 355.5 75 711 400 Q 1066.5 725 1422 345" stroke-dasharray="2 1" opacity="0.53"></path><path d="M 0 322 Q 355.5 75 711 400 Q 1066.5 725 1422 322" stroke-dasharray="2 3" opacity="0.49"></path><path d="M 0 299 Q 355.5 75 711 400 Q 1066.5 725 1422 299" stroke-dasharray="1 0" opacity="0.46"></path><path d="M 0 276 Q 355.5 75 711 400 Q 1066.5 725 1422 276" stroke-dasharray="1 2" opacity="0.42"></path><path d="M 0 253 Q 355.5 75 711 400 Q 1066.5 725 1422 253" opacity="0.39"></path><path d="M 0 230 Q 355.5 75 711 400 Q 1066.5 725 1422 230" stroke-dasharray="1 1" opacity="0.36"></path><path d="M 0 207 Q 355.5 75 711 400 Q 1066.5 725 1422 207" stroke-dasharray="1 0" opacity="0.32"></path><path d="M 0 184 Q 355.5 75 711 400 Q 1066.5 725 1422 184" stroke-dasharray="2 2" opacity="0.29"></path><path d="M 0 161 Q 355.5 75 711 400 Q 1066.5 725 1422 161" stroke-dasharray="1 0" opacity="0.25"></path><path d="M 0 138 Q 355.5 75 711 400 Q 1066.5 725 1422 138" stroke-dasharray="2 2" opacity="0.22"></path><path d="M 0 115 Q 355.5 75 711 400 Q 1066.5 725 1422 115" stroke-dasharray="0 2" opacity="0.19"></path><path d="M 0 92 Q 355.5 75 711 400 Q 1066.5 725 1422 92" stroke-dasharray="2 1" opacity="0.15"></path><path d="M 0 69 Q 355.5 75 711 400 Q 1066.5 725 1422 69" stroke-dasharray="1 1" opacity="0.12"></path><path d="M 0 46 Q 355.5 75 711 400 Q 1066.5 725 1422 46" stroke-dasharray="3 0" opacity="0.08"></path></g></svg>