<svg xmlns="http://www.w3.org/2000/svg" version="1.1" xmlns:xlink="http://www.w3.org/1999/xlink" xmlns:svgjs="http://svgjs.dev/svgjs" viewBox="0 0 800 800"><defs><linearGradient x1="50%" y1="0%" x2="50%" y2="100%" id="ffflurry-grad" gradientTransform="rotate(270)"><stop stop-color="hsl(238, 82%, 13%)" stop-opacity="1" offset="0%"></stop><stop stop-color="hsl(230, 55%, 50%)" stop-opacity="1" offset="45%"></stop><stop stop-color="hsl(230, 55%, 70%)" stop-opacity="1" offset="100%"></stop></linearGradient></defs><rect width="100%" height="100%" fill="hsl(238, 82%, 13%)"></rect><g fill="url(#ffflurry-grad)"><rect width="191" height="3" x="651.5" y="54.5" rx="1.5" transform="rotate(50, 747, 56)" opacity="0.93"></rect><rect width="83" height="3" x="464.5" y="234.5" rx="1.5" transform="rotate(50, 506, 236)" opacity="0.98"></rect><rect width="52" height="3" x="573" y="278.5" rx="1.5" transform="rotate(50, 599, 280)" opacity="0.26"></rect><rect width="83" height="3" x="430.5" y="581.5" rx="1.5" transform="rotate(50, 472, 583)" opacity="0.98"></rect><rect width="166" height="3" x="434" y="529.5" rx="1.5" transform="rotate(50, 517, 531)" opacity="0.74"></rect><rect width="64" height="3" x="90" y="122.5" rx="1.5" transform="rotate(50, 122, 124)" opacity="0.87"></rect><rect width="45" height="3" x="712.5" y="672.5" rx="1.5" transform="rotate(50, 735, 674)" opacity="0.84"></rect><rect width="40" height="3" x="38" y="28.5" rx="1.5" transform="rotate(50, 58, 30)" opacity="0.74"></rect><rect width="96" height="3" x="-12" y="260.5" rx="1.5" transform="rotate(50, 36, 262)" opacity="0.83"></rect><rect width="99" height="3" x="626.5" y="755.5" rx="1.5" transform="rotate(50, 676, 757)" opacity="0.16"></rect><rect width="98" height="3" x="125" y="82.5" rx="1.5" transform="rotate(50, 174, 84)" opacity="0.21"></rect><rect width="40" height="3" x="585" y="490.5" rx="1.5" transform="rotate(50, 605, 492)" opacity="0.15"></rect><rect width="104" height="3" x="616" y="104.5" rx="1.5" transform="rotate(50, 668, 106)" opacity="0.40"></rect><rect width="116" height="3" x="529" y="755.5" rx="1.5" transform="rotate(50, 587, 757)" opacity="0.66"></rect><rect width="43" height="3" x="294.5" y="378.5" rx="1.5" transform="rotate(50, 316, 380)" opacity="0.55"></rect><rect width="117" height="3" x="-4.5" y="344.5" rx="1.5" transform="rotate(50, 54, 346)" opacity="0.28"></rect><rect width="125" height="3" x="544.5" y="32.5" rx="1.5" transform="rotate(50, 607, 34)" opacity="0.97"></rect><rect width="25" height="3" x="155.5" y="20.5" rx="1.5" transform="rotate(50, 168, 22)" opacity="0.97"></rect><rect width="89" height="3" x="522.5" y="180.5" rx="1.5" transform="rotate(50, 567, 182)" opacity="0.85"></rect><rect width="49" height="3" x="-6.5" y="41.5" rx="1.5" transform="rotate(50, 18, 43)" opacity="0.26"></rect><rect width="160" height="3" x="358" y="119.5" rx="1.5" transform="rotate(50, 438, 121)" opacity="0.59"></rect><rect width="88" height="3" x="138" y="613.5" rx="1.5" transform="rotate(50, 182, 615)" opacity="0.66"></rect><rect width="75" height="3" x="583.5" y="676.5" rx="1.5" transform="rotate(50, 621, 678)" opacity="0.80"></rect><rect width="96" height="3" x="16" y="532.5" rx="1.5" transform="rotate(50, 64, 534)" opacity="0.61"></rect><rect width="44" height="3" x="659" y="174.5" rx="1.5" transform="rotate(50, 681, 176)" opacity="0.48"></rect><rect width="29" height="3" x="405.5" y="567.5" rx="1.5" transform="rotate(50, 420, 569)" opacity="0.56"></rect><rect width="127" height="3" x="496.5" y="611.5" rx="1.5" transform="rotate(50, 560, 613)" opacity="0.62"></rect><rect width="61" height="3" x="326.5" y="696.5" rx="1.5" transform="rotate(50, 357, 698)" opacity="0.34"></rect><rect width="27" height="3" x="247.5" y="23.5" rx="1.5" transform="rotate(50, 261, 25)" opacity="0.39"></rect><rect width="125" height="3" x="172.5" y="412.5" rx="1.5" transform="rotate(50, 235, 414)" opacity="0.85"></rect><rect width="61" height="3" x="395.5" y="666.5" rx="1.5" transform="rotate(50, 426, 668)" opacity="0.50"></rect><rect width="65" height="3" x="332.5" y="764.5" rx="1.5" transform="rotate(50, 365, 766)" opacity="0.07"></rect><rect width="89" height="3" x="420.5" y="453.5" rx="1.5" transform="rotate(50, 465, 455)" opacity="0.36"></rect><rect width="58" height="3" x="359" y="507.5" rx="1.5" transform="rotate(50, 388, 509)" opacity="0.49"></rect><rect width="124" height="3" x="345" y="322.5" rx="1.5" transform="rotate(50, 407, 324)" opacity="0.61"></rect><rect width="78" height="3" x="216" y="219.5" rx="1.5" transform="rotate(50, 255, 221)" opacity="0.91"></rect><rect width="161" height="3" x="215.5" y="494.5" rx="1.5" transform="rotate(50, 296, 496)" opacity="0.84"></rect><rect width="71" height="3" x="427.5" y="35.5" rx="1.5" transform="rotate(50, 463, 37)" opacity="0.19"></rect><rect width="91" height="3" x="21.5" y="189.5" rx="1.5" transform="rotate(50, 67, 191)" opacity="0.40"></rect><rect width="59" height="3" x="225.5" y="566.5" rx="1.5" transform="rotate(50, 255, 568)" opacity="0.47"></rect><rect width="86" height="3" x="647" y="526.5" rx="1.5" transform="rotate(50, 690, 528)" opacity="0.46"></rect><rect width="58" height="3" x="113" y="755.5" rx="1.5" transform="rotate(50, 142, 757)" opacity="0.63"></rect><rect width="119" height="3" x="44.5" y="43.5" rx="1.5" transform="rotate(50, 104, 45)" opacity="0.88"></rect><rect width="79" height="3" x="199.5" y="77.5" rx="1.5" transform="rotate(50, 239, 79)" opacity="0.18"></rect><rect width="129" height="3" x="280.5" y="68.5" rx="1.5" transform="rotate(50, 345, 70)" opacity="0.65"></rect><rect width="146" height="3" x="74" y="382.5" rx="1.5" transform="rotate(50, 147, 384)" opacity="0.30"></rect><rect width="105" height="3" x="706.5" y="748.5" rx="1.5" transform="rotate(50, 759, 750)" opacity="0.32"></rect><rect width="86" height="3" x="629" y="255.5" rx="1.5" transform="rotate(50, 672, 257)" opacity="0.68"></rect><rect width="40" height="3" x="14" y="721.5" rx="1.5" transform="rotate(50, 34, 723)" opacity="0.34"></rect><rect width="30" height="3" x="510" y="758.5" rx="1.5" transform="rotate(50, 525, 760)" opacity="0.58"></rect><rect width="58" height="3" x="344" y="429.5" rx="1.5" transform="rotate(50, 373, 431)" opacity="0.86"></rect><rect width="131" height="3" x="488.5" y="101.5" rx="1.5" transform="rotate(50, 554, 103)" opacity="0.24"></rect><rect width="41" height="3" x="436.5" y="772.5" rx="1.5" transform="rotate(50, 457, 774)" opacity="0.21"></rect><rect width="155" height="3" x="277.5" y="212.5" rx="1.5" transform="rotate(50, 355, 214)" opacity="0.24"></rect><rect width="69" height="3" x="452.5" y="713.5" rx="1.5" transform="rotate(50, 487, 715)" opacity="0.26"></rect><rect width="99" height="3" x="580.5" y="367.5" rx="1.5" transform="rotate(50, 630, 369)" opacity="0.94"></rect><rect width="140" height="3" x="371" y="207.5" rx="1.5" transform="rotate(50, 441, 209)" opacity="0.30"></rect><rect width="130" height="3" x="-27" y="115.5" rx="1.5" transform="rotate(50, 38, 117)" opacity="0.52"></rect><rect width="67" height="3" x="97.5" y="673.5" rx="1.5" transform="rotate(50, 131, 675)" opacity="0.88"></rect><rect width="76" height="3" x="133" y="194.5" rx="1.5" transform="rotate(50, 171, 196)" opacity="0.11"></rect><rect width="100" height="3" x="310" y="596.5" rx="1.5" transform="rotate(50, 360, 598)" opacity="0.42"></rect><rect width="73" height="3" x="434.5" y="372.5" rx="1.5" transform="rotate(50, 471, 374)" opacity="0.80"></rect><rect width="66" height="3" x="213" y="738.5" rx="1.5" transform="rotate(50, 246, 740)" opacity="0.42"></rect><rect width="151" height="3" x="563.5" y="582.5" rx="1.5" transform="rotate(50, 639, 584)" opacity="0.21"></rect><rect width="160" height="3" x="130" y="311.5" rx="1.5" transform="rotate(50, 210, 313)" opacity="0.66"></rect><rect width="169" height="3" x="631.5" y="437.5" rx="1.5" transform="rotate(50, 716, 439)" opacity="0.61"></rect><rect width="74" height="3" x="24" y="773.5" rx="1.5" transform="rotate(50, 61, 775)" opacity="0.25"></rect><rect width="56" height="3" x="167" y="513.5" rx="1.5" transform="rotate(50, 195, 515)" opacity="0.90"></rect><rect width="38" height="3" x="523" y="368.5" rx="1.5" transform="rotate(50, 542, 370)" opacity="0.98"></rect><rect width="59" height="3" x="737.5" y="519.5" rx="1.5" transform="rotate(50, 767, 521)" opacity="0.29"></rect><rect width="171" height="3" x="42.5" y="279.5" rx="1.5" transform="rotate(50, 128, 281)" opacity="0.13"></rect><rect width="127" height="3" x="235.5" y="297.5" rx="1.5" transform="rotate(50, 299, 299)" opacity="0.64"></rect><rect width="56" height="3" x="529" y="438.5" rx="1.5" transform="rotate(50, 557, 440)" opacity="0.76"></rect><rect width="153" height="3" x="-28.5" y="624.5" rx="1.5" transform="rotate(50, 48, 626)" opacity="0.12"></rect><rect width="108" height="3" x="693" y="340.5" rx="1.5" transform="rotate(50, 747, 342)" opacity="0.90"></rect><rect width="123" height="3" x="452.5" y="299.5" rx="1.5" transform="rotate(50, 514, 301)" opacity="0.86"></rect><rect width="84" height="3" x="221" y="140.5" rx="1.5" transform="rotate(50, 263, 142)" opacity="0.78"></rect><rect width="177" height="3" x="-42.5" y="430.5" rx="1.5" transform="rotate(50, 46, 432)" opacity="0.63"></rect><rect width="138" height="3" x="69" y="468.5" rx="1.5" transform="rotate(50, 138, 470)" opacity="0.95"></rect><rect width="80" height="3" x="722" y="201.5" rx="1.5" transform="rotate(50, 762, 203)" opacity="0.74"></rect><rect width="154" height="3" x="216" y="639.5" rx="1.5" transform="rotate(50, 293, 641)" opacity="0.34"></rect><rect width="107" height="3" x="443.5" y="651.5" rx="1.5" transform="rotate(50, 497, 653)" opacity="0.07"></rect><rect width="53" height="3" x="720.5" y="608.5" rx="1.5" transform="rotate(50, 747, 610)" opacity="0.17"></rect></g></svg>