<svg style="background: rgb(30, 41, 59);" xmlns="http://www.w3.org/2000/svg" version="1.1" xmlns:xlink="http://www.w3.org/1999/xlink" xmlns:svgjs="http://svgjs.dev/svgjs" viewBox="0 0 800 800"><defs><linearGradient x1="50%" y1="0%" x2="50%" y2="100%" id="ssscribble-grad"><stop stop-color="hsl(206, 75%, 49%)" stop-opacity="1" offset="0%"></stop><stop stop-color="hsl(331, 90%, 56%)" stop-opacity="1" offset="100%"></stop></linearGradient></defs><g fill="none" stroke-width="1.5" stroke="hsl(230, 55%, 40%)" stroke-linecap="round"><path d="M1065.72 212.49C1102.97 245.35 1060.08 269.18 956.37 286.97 824.83 308.26 704.58 330.55 625.68 361.34 602.57 405.6 631.86 468.83 694.97 555.21 778.85 654.98 853.66 768.17 903.47 878.55 928.02 961.96 918.45 1004.52 882.17 989.09 825.15 922.9 756.45 817.28 686.22 706.34 611.16 638.81 543.2 639.61 486.06 720.75 429.05 858.18 383.47 1002.46 350.61 1092.22 317.75 1088.34 299.16 992.22 294.2 848.71 293.46 671.37 336.24 737.51 349.9 885.11 335.54 959.07 297.93 982.1 230.31 954.95 137.43 886.3 23.66 791.67 -94.43 690.62 -191.76 586.62 -250.51 496.7 -251.5 424.42 -196.68 361.8 -95.13 313.41 23.71 274.26 114.74 238.81 150.97 205.9 113.72 173.04 10.73 140.18 -115.82 108.92 -221.83 82.39 -279.77 59.57 -268.11 48.18 -195.37 53.84 -81.54 69.17 43.74 104.97 152.85 158.33 250.02 232.46 220.03 234.89 155.68 95.72 110.81 -36.06 80.88 -165.58 68.19 -253.3 62.5 -270.54 71.74 -207.98 92 -83.97 115.07 46.85 144.17 136.32 177.03 140.24 209.89 50.49 244.96 -87.11 283.85 -211.88 325.56 -280.35 376.1 -262.46 438.73 -170.86 508.37 -35.84 592.41 99.25 687.93 199.67 781.36 249.32 871.66 245.73 944.04 205.41 985.03 138.09 986.44 72.09 942.28 22.96 867.38 -12.78 771.57 -21.89 681.82 -9.21 633.16 16.93 640.19 54.41 710.8 95.1 829.48 139.28 962.7 179.62 1065.69 212.48Q1065.72 212.49 1065.72 212.49" opacity="0.45"></path><path d="M1031.72 174.02C1068.92 204.53 1036.44 236.13 948.26 270.81 829.25 308.63 710.56 355.19 619.24 414.53 570.55 482.05 568.6 565.39 603.58 661.84 667.9 756.75 738.27 848.64 798.6 921.22 847.67 959.53 870.98 954.95 869.56 902.11 849.72 818.63 812.71 717.72 766.69 630.57 712.66 593.64 658.67 620.53 610.06 713.14 560.08 845.9 518.67 977.34 488.16 1058.22 457.64 1057.93 439.47 976.16 431.91 847.12 422.21 665.18 409.12 645.34 375.32 771.42 329.7 859.76 262.59 916.98 173.52 934.35 73.2 915.28 -33.33 862.58 -129.43 790.47 -196.19 703.42 -221.6 616.63 -195.27 538.52 -126.32 462.15 -25 398.49 82.22 347.43 158.63 298.41 184.92 258.9 147.72 228.39 53.6 197.87 -63.13 177.8 -166.76 169.26 -234.62 162.77 -244.58 170.93 -198.65 194.41 -109.33 219.64 2.74 256.18 113.88 296.2 210.55 321.3 278.01 330.19 314.41 309.28 321.14 251.93 306.85 158.53 282.71 38.43 247.81 -82.78 217.68 -183.43 198.06 -233.84 179.68 -219.87 174.66 -140.93 182.68 -18.94 192.17 98.32 212.49 173.92 243 174.24 273.52 93.37 312.77 -31.87 360.82 -152.86 410.34 -233.71 470.87 -243.25 542.13 -183.96 614.63 -74.46 695 53.81 776.94 169.06 877.16 274.07 927.45 239.53 846.92 167.61 767.55 118.19 682.84 85.09 615.88 70.46 592.3 63.99 619.62 72.93 699.24 92.65 814.64 115.52 937.57 143.5 1031.69 174.01Q1031.72 174.02 1031.72 174.02" opacity="0.87"></path><path d="M997.72 240.06C1034.45 268.22 1011.4 305.37 938.35 351.68 833.6 399.6 720.98 459.09 623.64 529.95 555.8 602.07 526.08 682.31 531.48 763.71 568.68 833.06 621.95 887.52 677.55 914.65 734.38 910.07 776.3 869.07 799.79 794.98 811.15 709.96 804.89 625.72 785.71 567.63 758.56 560.16 725.36 608.5 691.03 707.86 654.67 833.55 621.24 951.91 593.07 1024.22 564.91 1027.04 543.34 958.87 526.58 845.24 507.78 718.55 489.74 613.79 468.08 553.91 438.46 547.98 398.32 588.69 343.55 657.03 276.65 741.06 194.3 813.66 100.56 861.42 8.03 884.93 -78.62 876.8 -145.15 844.15 -179.87 792.3 -175.42 729.76 -128.22 665.87 -51.53 597.23 45.05 535.25 138.93 483.57 201.11 431.88 218.45 391.27 181.72 363.1 96.3 334.93 -10.27 320.53 -109.63 319.1 -183.85 317.66 -211.72 328.4 -190.89 348.22 -128.43 363.31 -36.8 379.47 65.41 387.91 167.05 377.15 252.47 344.86 315.25 284.44 355.29 199.76 373.39 93.77 376.34 -19.58 357.24 -150.24 318.25 -114.38 318.96 45.79 323.12 148.56 338.92 211.03 367.08 208.24 395.25 135.94 434.45 23.29 483.41 -91.53 532.35 -180.03 590.51 -212.35 654.97 -184.24 716.06 -105.51 777.66 3.98 832.57 118.33 873.03 221.75 895.38 296.14 892.26 337.65 866.4 347.44 814.38 333.42 742.07 307.48 669.18 269.48 602.81 235.63 560.98 212.32 560.79 190.27 604.67 182.02 689.75 187.22 799.98 194.03 912.26 211.88 997.69 240.05Q997.72 240.06 997.72 240.06" opacity="0.48"></path><path d="M963.72 380.05C999.58 405.87 984.89 443.18 926.3 490.59 836.9 537.85 734.11 594.34 636.82 656.76 557.11 715.04 505.57 772.69 483.83 821.93 491.38 855.26 519.64 868.47 558.55 854.72 607.4 818.5 651.79 757.31 685.87 679.42 723.08 576.85 723.43 570.63 697.73 704.38 676.6 820.95 652.34 926.15 626.52 990.22 600.7 995.64 574.54 940.21 546.98 842.48 517.59 726.35 483.43 619.53 441.92 543.24 394.87 508.2 336.96 515.43 267.66 554.7 193.79 619.25 112.33 688.22 29.64 747.69 -72.54 810.66 -127.37 802.11 -52.39 750.91 25.97 706.15 114.06 660.54 193.5 619.1 242.12 576.18 251.58 540.69 215.72 514.87 138.8 489.05 42.62 474.12 -50.79 468.34 -148.74 460.41 -101.65 444.95 16.49 410.07 110.71 365.97 200.61 302.29 277.78 218.8 341.59 125.48 387.33 25.9 417.43 -65.52 434.06 -131.69 441.85 -162.08 446.29 -145.98 445.06 -88.62 446.76 3.49 454.82 109.65 461.81 197.42 477.52 247.63 503.34 242.24 529.16 178.18 563.86 78.22 605.55 -28.38 646.19 -120 691.46 -169.69 737.44 -169.43 777.74 -123.12 812.48 -40.62 835.65 59.15 845.34 163.93 836.68 255.74 806.71 325.8 763.39 373.39 704.1 397.24 636.77 403.71 557.07 386.7 566.73 343.16 681.98 339.84 785.35 341.12 886.77 354.23 963.69 380.04Q963.72 380.05 963.72 380.05" opacity="0.65"></path><path d="M929.72 529.28C964.29 552.75 956.86 584.57 911.78 622.73 838.15 659.58 748.07 699.97 656.2 739.65 572.05 772.95 506.22 798.9 462.95 811.61 443.15 810.61 444.04 790.57 459.47 749.89 488.95 698.52 521.92 634.78 552.22 568.42 584.38 517.36 607.94 486.74 621.23 488.23 632.34 527.95 633.42 602.54 625.32 702.12 616.16 807.91 599.6 900.04 576.13 956.22 552.66 963.73 523.38 920.04 488.28 838.24 452.11 735.36 408.33 632.28 356.54 547.18 302.58 490.28 240.37 467.55 172.03 475.47 105.55 511.2 38.89 561.35 -21.36 614.32 -67.54 669.84 -96.27 713.54 -100.91 741.82 -82.08 760.71 -37.29 763.94 29.64 754.86 104.3 738.93 181.02 716.2 245.59 690.75 281.62 663.39 284.29 636.99 249.72 613.52 181.11 590.04 95.42 570.61 9.35 553.7 -67.52 534.89 -118.44 514.93 -137.59 490.18 -126.42 458.58 -85.62 416.71 -23.75 361.65 53.31 297.2 135.21 219.8 213.55 133.51 287.7 49.77 350.28 -28.2 400.28 -88.38 440.93 -120.75 471.32 -119.07 494.64 -79.39 512.42 -11.5 527.99 78.2 544.37 172.03 559.3 244.77 577.87 283.73 601.34 276.24 624.81 220.07 652.07 132.7 681.41 35.96 709.3 -54.56 736.42 -115.8 759.33 -138.32 776.69 -122.62 784.96 -70.95 780.49 4.54 766.66 95.34 737.79 186.92 694.41 269.05 646.83 340.49 592.76 394.23 540.13 431.41 502.7 454.88 482.94 467.58 488.96 474.96 525.31 475.96 589.58 478.27 675.51 485.68 770.63 491.78 861.08 505.79 929.69 529.27Q929.72 529.28 929.72 529.28" opacity="0.62"></path><path d="M895.72 618.71C928.6 639.83 927.28 662.9 894.48 686.31 836.43 708.16 760.95 727.36 678.88 740.64 597.15 748.4 525.09 745.77 467.96 729.95 426.99 706.15 403.4 668.56 394.41 619.23 399.41 569.68 412.37 518.45 428.3 474.29 449.92 449.76 468.58 447.29 481.31 473.01 494.79 527.54 500.36 606.57 497.14 700.46 493.73 794.24 481.67 873.57 460.54 922.22 439.42 931.31 410.23 898.23 373.81 831.95 337.19 744.13 293.18 649.68 243.1 563.16 193.76 493.01 140.31 447.31 86.13 426.92 37.64 431.34 -5.64 454.05 -38.33 487.1 -57.03 530.4 -58.48 571.99 -39.5 606.5 -4.37 639.24 48.73 660.75 114.98 670.9 181.56 677.26 245.01 674.19 294.92 663.59 319.56 651.59 316.6 634.54 283.72 613.42 223.19 592.3 147.98 568.09 70.39 540.26 -3.32 511.03 -59.22 475.67 -91.5 432.7 -100.78 385.95 -84.43 329.65 -47.22 264.36 6.81 197.28 71.29 125.36 139.17 54.37 209.86 -6.36 275.87 -54.12 334.19 -80.55 388.32 -82.16 433.79 -55.41 471.31 -0.76 505.07 70.27 533.48 152.68 558.19 232.36 581.68 290.49 603.69 319.31 624.82 310.24 645.94 261.6 665.18 186.55 681.53 100.92 696.67 15.18 706.68 -51.83 709.54 -90.88 708.63 -101.12 697.95 -79.72 676.39 -33.19 650.62 32.96 614.94 109.24 571.95 186.48 531.75 263.49 492.31 331.42 460.26 387.77 445.04 436.15 447.64 473.57 472.39 502.42 520.14 525.75 588.06 544.98 669.93 562.96 755.67 579.4 835.16 597.58 895.69 618.7Q895.72 618.71 895.72 618.71" opacity="0.43"></path><path d="M861.72 607C892.5 625.78 896.1 640.34 874.16 650.02 830.88 658.63 770.86 660.46 701.72 654.13 628.14 644.87 557.5 625.87 494.94 597.14 441.37 566.63 400.2 528.97 371.09 487.92 348.55 438.82 347.29 419.04 353.34 472.92 359.24 535.56 360.8 613.63 356.35 698.77 352.32 779.75 341.32 846.71 322.54 888.22 303.76 898.37 278.1 874.68 246.71 823.07 215.75 751.23 180.03 669.16 141.59 587.73 105.53 513.18 69.55 453.58 36.94 412.08 1.97 386.17 0.37 422.59 43.85 459.79 86.86 488.26 140.65 511.41 200.47 526.98 255.85 542.14 305.18 548.78 341.21 546.66 355.91 544.04 348.5 533.4 317.72 514.62 265.03 495.85 200.17 469.83 131.89 437.04 63.77 403.75 6.98 362.95 -33.34 315.25 -57.79 267.14 -61.94 213.06 -47.81 155.66 -18.38 101.91 23.64 50.14 73.16 5.73 129.4 -26 186.56 -42.46 241.04 -39.01 295.74 -17.07 345.05 25.68 387.85 86.46 429.19 154.11 464.47 225.5 493.8 290.1 522.47 334.47 546.3 354.37 565.07 344.24 583.86 302.73 596.7 239.58 603.44 165.85 609.54 87.95 608.42 20.56 599.62 -28.31 589.36 -57.78 570.98 -62.26 545.23 -44.25 519.69 -7.3 489.48 44.12 457.85 103.24 432.94 168.91 413.17 233.52 403.29 292.98 408.7 350.65 429.68 400.57 467.89 442.37 521.98 481.24 589.45 513.57 664.81 540.37 740.34 566.11 809 588.21 861.69 606.99Q861.72 607 861.72 607" opacity="0.50"></path><path d="M827.72 499.56C864.97 532.42 820.54 535.16 721.63 509.04 595.9 481.93 477.77 432.17 389.38 381.21 328.06 365.82 294.34 394.85 273.52 485.73 263.16 620.45 246.07 764.46 213.21 854.22 180.35 850.33 134.83 753.93 88.24 616.89 52.11 480.63 34.55 385.99 52.8 341.32 98.12 339.77 181.4 359.54 283.04 374.72 357.86 396.98 388.97 395.68 351.72 362.82 248.72 329.96 128.64 268.67 35.35 189.45 -19.85 117.33 -15.51 46.27 32.44 4.73 110.55 6.33 198.3 66.11 274.79 178.27 352.84 291.22 411.36 374.32 444.22 378.24 477.1 288.49 481.19 157.79 460.09 47.14 440.55 -19.65 404.08 -13.83 369.03 44.62 364.14 138.64 394.65 239.69 473.93 323.75 591.3 406.82 724.7 466.69 827.69 499.55Q827.72 499.56 827.72 499.56" opacity="0.64"></path><path d="M793.72 346.07C830.45 374.24 805.68 375.8 735.65 357.47 637.01 344.53 532.15 325.31 441.31 318.65 361.96 343.64 303.83 406.05 262.89 508.22 229.56 629.76 201.18 747.91 173.02 820.22 144.85 823.04 119.56 754.28 104.08 646.21 96.21 524 110.38 418.71 152.81 345.79 206.73 300.71 281.72 280.25 359.71 269.03 409.09 267.12 422.45 256.37 385.72 228.2 300.3 200.03 199.32 157.12 112.42 110.22 44.82 72.63 18.7 49.13 29.18 57.29 64.94 93.29 118.19 168.69 172.01 270.26 231.05 357.67 278.83 415.03 307 412.24 335.18 339.94 341.06 233.2 330.84 132.29 325.83 50.76 316.53 18.22 317.68 30.15 344.11 73.72 400.1 136.9 488.34 198.65 595.88 265.8 708.27 317.9 793.69 346.06Q793.72 346.07 793.72 346.07" opacity="0.14"></path><path d="M759.72 217.52C794.29 240.99 785.07 251.12 741.15 254.07 672.28 263.54 590.9 278.3 512.6 309.32 434.88 360.95 369.89 438.42 320.63 536.49 274.93 637.98 240.3 730.05 216.83 786.22 193.36 793.73 183.27 749.18 188.29 671.32 196.87 573.98 225.23 477.39 272.18 397.1 319.73 328.84 376.21 280.14 427.87 246.45 454.58 219.53 454.29 196.5 419.72 173.03 351.11 149.56 270.07 127.86 195.24 114.11 126.91 107.12 84.3 119.19 68.54 156.68 69.19 206.2 88.43 277.89 116.15 358.02 149.17 418.68 180.72 453.73 204.19 446.24 227.67 390.07 240.84 307.52 248.49 223.23 261.45 142.35 278.84 89.78 308.94 68.9 355.46 68.65 422.97 90.51 508.49 121.72 600.53 159.45 691.08 194.04 759.69 217.51Q759.72 217.52 759.72 217.52" opacity="0.38"></path><path d="M725.72 173.36C756.5 192.14 758.36 211.71 736.01 234.46 695.35 261.5 641.71 298.92 585.31 349.74 524.46 409.74 468.92 484.3 424.33 566.21 380.17 643.64 347.22 710.71 328.44 752.22 309.66 762.37 306.84 737.66 318.45 688.09 330.5 620.74 356.73 546.55 392.97 477.44 424.76 409.5 458.49 353.1 485.38 310.67 493.97 271.04 484.5 241.6 453.72 222.83 401.03 204.05 339.81 197.7 280.8 204.79 221.26 214.68 175.73 241.78 147.6 285.1 127.26 329.6 122.33 383.88 129.01 437.47 139.11 473.27 155.09 490.37 173.87 480.22 192.64 438.71 212.45 379.25 234.89 315.58 260.75 247.44 294.99 192.8 339.94 157.4 392.67 131.19 458.11 123.08 531.41 128.57 604.18 138.37 673 154.57 725.69 173.35Q725.72 173.36 725.72 173.36" opacity="0.94"></path><path d="M691.72 234.01C728.45 262.17 700.14 327.91 641.26 424.71 563.5 528.16 494.7 645.91 466.54 718.22 438.37 721.03 456.17 650.99 497.01 562.21 518.98 460.79 524.45 382.72 487.72 354.55 402.29 326.38 312.53 353.45 256.06 417.95 207.6 469.82 199.06 517.03 227.23 514.22 255.39 441.91 314.94 346.99 400.31 280.46 493.69 220.58 606.29 205.84 691.72 234.01Q691.72 234.01 691.72 234.01" opacity="0.49"></path><path d="M657.72 371.41C693.83 408.96 617.55 575.86 580 684.22 542.44 671.68 557.83 544.84 521.72 507.29 400.52 469.73 306.97 535.68 344.53 548.22 382.08 439.86 536.52 333.85 657.72 371.41Q657.72 371.41 657.72 371.41" opacity="0.56"></path></g></svg>